# xmcd
# 
# Track frame offsets:
#     225
#     67679
#     105961
# 
# Disc length: 2711
# 
# Revision: 1
# Processed by: cddbd v1.5.2PL0 Copyright (c) Steve Scherf et al.
# Submitted via: BonkEnc v1.0.8
# 
DISCID=160a9403
DTITLE=Neil Ardley, Ian Carr, Mike Gibbs, Stan Tracey - Will Power - A Shakespeare Birthday Celebration In Music
DYEAR=1975
DGENRE=Contemporary Jazz
TTITLE0=Alas Sweet Lady
TTITLE1=Will's Birthday Suite: Heyday
TTITLE2=Will's Birthday Suite: Dirge (Fear no more the heat of the sun) - Fool Talk - Heyday (reprise)
EXTD=YEAR: 1975
EXTT0=
EXTT1=
EXTT2=
PLAYORDER=
